<mxfile host="app.diagrams.net" modified="2022-06-07T20:02:10.110Z" agent="5.0 (Windows NT 10.0; Win64; x64) AppleWebKit/537.36 (KHTML, like Gecko) Chrome/100.0.4896.127 Safari/537.36 OPR/86.0.4363.70" etag="hyYg0oxiINqmOmyftvEp" version="18.2.0" type="github">
  <diagram id="C5RBs43oDa-KdzZeNtuy" name="Page-1">
    <mxGraphModel dx="1005" dy="595" grid="1" gridSize="10" guides="1" tooltips="1" connect="1" arrows="1" fold="1" page="1" pageScale="1" pageWidth="827" pageHeight="1169" math="0" shadow="0">
      <root>
        <mxCell id="WIyWlLk6GJQsqaUBKTNV-0" />
        <mxCell id="WIyWlLk6GJQsqaUBKTNV-1" parent="WIyWlLk6GJQsqaUBKTNV-0" />
        <mxCell id="kKHbiNKIMSAw3umt-t6Z-0" value="Osoba" style="swimlane;fontStyle=1;align=center;verticalAlign=top;childLayout=stackLayout;horizontal=1;startSize=26;horizontalStack=0;resizeParent=1;resizeParentMax=0;resizeLast=0;collapsible=1;marginBottom=0;" parent="WIyWlLk6GJQsqaUBKTNV-1" vertex="1">
          <mxGeometry x="280" y="48" width="160" height="132" as="geometry" />
        </mxCell>
        <mxCell id="kKHbiNKIMSAw3umt-t6Z-1" value="+ Imie : string&#xa;+ Nazwisko : string&#xa;+ Data_urodzenia : int&#xa;+ Nr_telefonu : int" style="text;strokeColor=none;fillColor=none;align=left;verticalAlign=top;spacingLeft=4;spacingRight=4;overflow=hidden;rotatable=0;points=[[0,0.5],[1,0.5]];portConstraint=eastwest;" parent="kKHbiNKIMSAw3umt-t6Z-0" vertex="1">
          <mxGeometry y="26" width="160" height="74" as="geometry" />
        </mxCell>
        <mxCell id="kKHbiNKIMSAw3umt-t6Z-2" value="" style="line;strokeWidth=1;fillColor=none;align=left;verticalAlign=middle;spacingTop=-1;spacingLeft=3;spacingRight=3;rotatable=0;labelPosition=right;points=[];portConstraint=eastwest;" parent="kKHbiNKIMSAw3umt-t6Z-0" vertex="1">
          <mxGeometry y="100" width="160" height="8" as="geometry" />
        </mxCell>
        <mxCell id="kKHbiNKIMSAw3umt-t6Z-3" value="+ method(type): type" style="text;strokeColor=none;fillColor=none;align=left;verticalAlign=top;spacingLeft=4;spacingRight=4;overflow=hidden;rotatable=0;points=[[0,0.5],[1,0.5]];portConstraint=eastwest;" parent="kKHbiNKIMSAw3umt-t6Z-0" vertex="1">
          <mxGeometry y="108" width="160" height="24" as="geometry" />
        </mxCell>
        <mxCell id="kKHbiNKIMSAw3umt-t6Z-4" value="Uchodźca" style="swimlane;fontStyle=1;align=center;verticalAlign=top;childLayout=stackLayout;horizontal=1;startSize=26;horizontalStack=0;resizeParent=1;resizeParentMax=0;resizeLast=0;collapsible=1;marginBottom=0;" parent="WIyWlLk6GJQsqaUBKTNV-1" vertex="1">
          <mxGeometry x="560" y="140" width="250" height="180" as="geometry" />
        </mxCell>
        <mxCell id="kKHbiNKIMSAw3umt-t6Z-5" value="+ Identyfikator : int&#xa;+ Status_zwiazku : stirng&#xa;+ Rodzina : Uchodzca[]&#xa;+ Pomoc: int&#xa;+ Zakwaterowanie : Zakwaterowanie[]&#xa;+ Status : string&#xa;+ Darmowa_komunikacja : bool" style="text;strokeColor=none;fillColor=none;align=left;verticalAlign=top;spacingLeft=4;spacingRight=4;overflow=hidden;rotatable=0;points=[[0,0.5],[1,0.5]];portConstraint=eastwest;" parent="kKHbiNKIMSAw3umt-t6Z-4" vertex="1">
          <mxGeometry y="26" width="250" height="120" as="geometry" />
        </mxCell>
        <mxCell id="kKHbiNKIMSAw3umt-t6Z-6" value="" style="line;strokeWidth=1;fillColor=none;align=left;verticalAlign=middle;spacingTop=-1;spacingLeft=3;spacingRight=3;rotatable=0;labelPosition=right;points=[];portConstraint=eastwest;" parent="kKHbiNKIMSAw3umt-t6Z-4" vertex="1">
          <mxGeometry y="146" width="250" height="8" as="geometry" />
        </mxCell>
        <mxCell id="kKHbiNKIMSAw3umt-t6Z-7" value="+ method(type): type" style="text;strokeColor=none;fillColor=none;align=left;verticalAlign=top;spacingLeft=4;spacingRight=4;overflow=hidden;rotatable=0;points=[[0,0.5],[1,0.5]];portConstraint=eastwest;" parent="kKHbiNKIMSAw3umt-t6Z-4" vertex="1">
          <mxGeometry y="154" width="250" height="26" as="geometry" />
        </mxCell>
        <mxCell id="kKHbiNKIMSAw3umt-t6Z-45" style="edgeStyle=orthogonalEdgeStyle;rounded=0;orthogonalLoop=1;jettySize=auto;html=1;entryX=0.8;entryY=-0.028;entryDx=0;entryDy=0;exitX=1;exitY=0.5;exitDx=0;exitDy=0;endArrow=none;endFill=0;startArrow=diamond;startFill=0;entryPerimeter=0;" parent="kKHbiNKIMSAw3umt-t6Z-4" source="kKHbiNKIMSAw3umt-t6Z-5" target="kKHbiNKIMSAw3umt-t6Z-4" edge="1">
          <mxGeometry relative="1" as="geometry">
            <mxPoint x="150.96000000000004" y="158.0039999999999" as="sourcePoint" />
            <mxPoint x="80" y="330" as="targetPoint" />
            <Array as="points">
              <mxPoint x="350" y="86" />
              <mxPoint x="350" y="-60" />
              <mxPoint x="200" y="-60" />
            </Array>
          </mxGeometry>
        </mxCell>
        <mxCell id="kKHbiNKIMSAw3umt-t6Z-8" value="Zakwaterowanie" style="swimlane;fontStyle=1;align=center;verticalAlign=top;childLayout=stackLayout;horizontal=1;startSize=26;horizontalStack=0;resizeParent=1;resizeParentMax=0;resizeLast=0;collapsible=1;marginBottom=0;" parent="WIyWlLk6GJQsqaUBKTNV-1" vertex="1">
          <mxGeometry x="670" y="540" width="160" height="120" as="geometry" />
        </mxCell>
        <mxCell id="kKHbiNKIMSAw3umt-t6Z-9" value="+ Adres : string&#xa;+ Liczba_pokoi: int&#xa;+ Status:string&#xa;+ Stan:string" style="text;strokeColor=none;fillColor=none;align=left;verticalAlign=top;spacingLeft=4;spacingRight=4;overflow=hidden;rotatable=0;points=[[0,0.5],[1,0.5]];portConstraint=eastwest;" parent="kKHbiNKIMSAw3umt-t6Z-8" vertex="1">
          <mxGeometry y="26" width="160" height="64" as="geometry" />
        </mxCell>
        <mxCell id="kKHbiNKIMSAw3umt-t6Z-10" value="" style="line;strokeWidth=1;fillColor=none;align=left;verticalAlign=middle;spacingTop=-1;spacingLeft=3;spacingRight=3;rotatable=0;labelPosition=right;points=[];portConstraint=eastwest;" parent="kKHbiNKIMSAw3umt-t6Z-8" vertex="1">
          <mxGeometry y="90" width="160" height="8" as="geometry" />
        </mxCell>
        <mxCell id="kKHbiNKIMSAw3umt-t6Z-11" value="+ method(type): type" style="text;strokeColor=none;fillColor=none;align=left;verticalAlign=top;spacingLeft=4;spacingRight=4;overflow=hidden;rotatable=0;points=[[0,0.5],[1,0.5]];portConstraint=eastwest;" parent="kKHbiNKIMSAw3umt-t6Z-8" vertex="1">
          <mxGeometry y="98" width="160" height="22" as="geometry" />
        </mxCell>
        <mxCell id="kKHbiNKIMSAw3umt-t6Z-12" value="Urzednik" style="swimlane;fontStyle=1;align=center;verticalAlign=top;childLayout=stackLayout;horizontal=1;startSize=26;horizontalStack=0;resizeParent=1;resizeParentMax=0;resizeLast=0;collapsible=1;marginBottom=0;" parent="WIyWlLk6GJQsqaUBKTNV-1" vertex="1">
          <mxGeometry x="70" y="180" width="160" height="104" as="geometry" />
        </mxCell>
        <mxCell id="kKHbiNKIMSAw3umt-t6Z-13" value="+ Stopien : string&#xa;+ Id : int" style="text;strokeColor=none;fillColor=none;align=left;verticalAlign=top;spacingLeft=4;spacingRight=4;overflow=hidden;rotatable=0;points=[[0,0.5],[1,0.5]];portConstraint=eastwest;" parent="kKHbiNKIMSAw3umt-t6Z-12" vertex="1">
          <mxGeometry y="26" width="160" height="44" as="geometry" />
        </mxCell>
        <mxCell id="kKHbiNKIMSAw3umt-t6Z-14" value="" style="line;strokeWidth=1;fillColor=none;align=left;verticalAlign=middle;spacingTop=-1;spacingLeft=3;spacingRight=3;rotatable=0;labelPosition=right;points=[];portConstraint=eastwest;" parent="kKHbiNKIMSAw3umt-t6Z-12" vertex="1">
          <mxGeometry y="70" width="160" height="8" as="geometry" />
        </mxCell>
        <mxCell id="kKHbiNKIMSAw3umt-t6Z-15" value="+ method(type): type" style="text;strokeColor=none;fillColor=none;align=left;verticalAlign=top;spacingLeft=4;spacingRight=4;overflow=hidden;rotatable=0;points=[[0,0.5],[1,0.5]];portConstraint=eastwest;" parent="kKHbiNKIMSAw3umt-t6Z-12" vertex="1">
          <mxGeometry y="78" width="160" height="26" as="geometry" />
        </mxCell>
        <mxCell id="kKHbiNKIMSAw3umt-t6Z-16" value="Baza" style="swimlane;fontStyle=1;align=center;verticalAlign=top;childLayout=stackLayout;horizontal=1;startSize=26;horizontalStack=0;resizeParent=1;resizeParentMax=0;resizeLast=0;collapsible=1;marginBottom=0;" parent="WIyWlLk6GJQsqaUBKTNV-1" vertex="1">
          <mxGeometry x="260" y="470" width="210" height="144" as="geometry">
            <mxRectangle x="130" y="360" width="100" height="26" as="alternateBounds" />
          </mxGeometry>
        </mxCell>
        <mxCell id="kKHbiNKIMSAw3umt-t6Z-17" value="+ Uchodźcy : Uchodźca[]&#xa;+ Urzednicy: Urzednik[]&#xa;+ Zakwaterowania: Zakwaterowania[]" style="text;strokeColor=none;fillColor=none;align=left;verticalAlign=top;spacingLeft=4;spacingRight=4;overflow=hidden;rotatable=0;points=[[0,0.5],[1,0.5]];portConstraint=eastwest;" parent="kKHbiNKIMSAw3umt-t6Z-16" vertex="1">
          <mxGeometry y="26" width="210" height="84" as="geometry" />
        </mxCell>
        <mxCell id="kKHbiNKIMSAw3umt-t6Z-18" value="" style="line;strokeWidth=1;fillColor=none;align=left;verticalAlign=middle;spacingTop=-1;spacingLeft=3;spacingRight=3;rotatable=0;labelPosition=right;points=[];portConstraint=eastwest;" parent="kKHbiNKIMSAw3umt-t6Z-16" vertex="1">
          <mxGeometry y="110" width="210" height="8" as="geometry" />
        </mxCell>
        <mxCell id="kKHbiNKIMSAw3umt-t6Z-19" value="+ method(type): type" style="text;strokeColor=none;fillColor=none;align=left;verticalAlign=top;spacingLeft=4;spacingRight=4;overflow=hidden;rotatable=0;points=[[0,0.5],[1,0.5]];portConstraint=eastwest;" parent="kKHbiNKIMSAw3umt-t6Z-16" vertex="1">
          <mxGeometry y="118" width="210" height="26" as="geometry" />
        </mxCell>
        <mxCell id="kKHbiNKIMSAw3umt-t6Z-21" style="edgeStyle=orthogonalEdgeStyle;rounded=0;orthogonalLoop=1;jettySize=auto;html=1;entryX=1.019;entryY=0.068;entryDx=0;entryDy=0;entryPerimeter=0;exitX=0.25;exitY=0;exitDx=0;exitDy=0;endArrow=block;endFill=0;startArrow=none;startFill=0;" parent="WIyWlLk6GJQsqaUBKTNV-1" source="kKHbiNKIMSAw3umt-t6Z-4" target="kKHbiNKIMSAw3umt-t6Z-1" edge="1">
          <mxGeometry relative="1" as="geometry">
            <mxPoint x="480" y="370" as="sourcePoint" />
          </mxGeometry>
        </mxCell>
        <mxCell id="kKHbiNKIMSAw3umt-t6Z-22" style="edgeStyle=orthogonalEdgeStyle;rounded=0;orthogonalLoop=1;jettySize=auto;html=1;entryX=0.25;entryY=0;entryDx=0;entryDy=0;exitX=-0.025;exitY=0.027;exitDx=0;exitDy=0;endArrow=none;endFill=0;exitPerimeter=0;startArrow=block;startFill=0;" parent="WIyWlLk6GJQsqaUBKTNV-1" source="kKHbiNKIMSAw3umt-t6Z-1" target="kKHbiNKIMSAw3umt-t6Z-12" edge="1">
          <mxGeometry relative="1" as="geometry">
            <mxPoint x="610" y="150" as="sourcePoint" />
            <mxPoint x="453.03999999999996" y="101.03200000000004" as="targetPoint" />
          </mxGeometry>
        </mxCell>
        <mxCell id="kKHbiNKIMSAw3umt-t6Z-33" value="0...*" style="text;align=center;fontStyle=1;verticalAlign=middle;spacingLeft=3;spacingRight=3;strokeColor=none;rotatable=0;points=[[0,0.5],[1,0.5]];portConstraint=eastwest;" parent="WIyWlLk6GJQsqaUBKTNV-1" vertex="1">
          <mxGeometry x="120" y="290" width="80" height="26" as="geometry" />
        </mxCell>
        <mxCell id="kKHbiNKIMSAw3umt-t6Z-34" value="1" style="text;align=center;fontStyle=1;verticalAlign=middle;spacingLeft=3;spacingRight=3;strokeColor=none;rotatable=0;points=[[0,0.5],[1,0.5]];portConstraint=eastwest;" parent="WIyWlLk6GJQsqaUBKTNV-1" vertex="1">
          <mxGeometry x="400" y="440" width="80" height="26" as="geometry" />
        </mxCell>
        <mxCell id="kKHbiNKIMSAw3umt-t6Z-36" style="edgeStyle=orthogonalEdgeStyle;rounded=0;orthogonalLoop=1;jettySize=auto;html=1;entryX=1.013;entryY=0.136;entryDx=0;entryDy=0;exitX=-0.025;exitY=0.722;exitDx=0;exitDy=0;endArrow=none;endFill=0;exitPerimeter=0;startArrow=none;startFill=0;entryPerimeter=0;" parent="WIyWlLk6GJQsqaUBKTNV-1" source="kKHbiNKIMSAw3umt-t6Z-5" target="kKHbiNKIMSAw3umt-t6Z-13" edge="1">
          <mxGeometry relative="1" as="geometry">
            <mxPoint x="286" y="85.99800000000005" as="sourcePoint" />
            <mxPoint x="120" y="190" as="targetPoint" />
          </mxGeometry>
        </mxCell>
        <mxCell id="kKHbiNKIMSAw3umt-t6Z-40" value="1" style="text;align=center;fontStyle=1;verticalAlign=middle;spacingLeft=3;spacingRight=3;strokeColor=none;rotatable=0;points=[[0,0.5],[1,0.5]];portConstraint=eastwest;" parent="WIyWlLk6GJQsqaUBKTNV-1" vertex="1">
          <mxGeometry x="440" y="514" width="80" height="26" as="geometry" />
        </mxCell>
        <mxCell id="kKHbiNKIMSAw3umt-t6Z-43" style="edgeStyle=orthogonalEdgeStyle;rounded=0;orthogonalLoop=1;jettySize=auto;html=1;entryX=0.75;entryY=0;entryDx=0;entryDy=0;exitX=0.881;exitY=1.154;exitDx=0;exitDy=0;endArrow=none;endFill=0;exitPerimeter=0;startArrow=diamond;startFill=0;" parent="WIyWlLk6GJQsqaUBKTNV-1" source="kKHbiNKIMSAw3umt-t6Z-7" target="kKHbiNKIMSAw3umt-t6Z-8" edge="1">
          <mxGeometry relative="1" as="geometry">
            <mxPoint x="397.04" y="525.002" as="sourcePoint" />
            <mxPoint x="200.00000000000003" y="434" as="targetPoint" />
            <Array as="points">
              <mxPoint x="780" y="410" />
              <mxPoint x="790" y="410" />
            </Array>
          </mxGeometry>
        </mxCell>
        <mxCell id="kKHbiNKIMSAw3umt-t6Z-47" value="0...*" style="text;align=center;fontStyle=1;verticalAlign=middle;spacingLeft=3;spacingRight=3;strokeColor=none;rotatable=0;points=[[0,0.5],[1,0.5]];portConstraint=eastwest;" parent="WIyWlLk6GJQsqaUBKTNV-1" vertex="1">
          <mxGeometry x="500" y="209" width="80" height="26" as="geometry" />
        </mxCell>
        <mxCell id="kKHbiNKIMSAw3umt-t6Z-48" value="1" style="text;align=center;fontStyle=1;verticalAlign=middle;spacingLeft=3;spacingRight=3;strokeColor=none;rotatable=0;points=[[0,0.5],[1,0.5]];portConstraint=eastwest;" parent="WIyWlLk6GJQsqaUBKTNV-1" vertex="1">
          <mxGeometry x="220" y="190" width="80" height="26" as="geometry" />
        </mxCell>
        <mxCell id="kKHbiNKIMSAw3umt-t6Z-49" value="0 .. 5" style="text;align=center;fontStyle=1;verticalAlign=middle;spacingLeft=3;spacingRight=3;strokeColor=none;rotatable=0;points=[[0,0.5],[1,0.5]];portConstraint=eastwest;" parent="WIyWlLk6GJQsqaUBKTNV-1" vertex="1">
          <mxGeometry x="730" y="514" width="80" height="26" as="geometry" />
        </mxCell>
        <mxCell id="kKHbiNKIMSAw3umt-t6Z-50" value="1...*" style="text;align=center;fontStyle=1;verticalAlign=middle;spacingLeft=3;spacingRight=3;strokeColor=none;rotatable=0;points=[[0,0.5],[1,0.5]];portConstraint=eastwest;" parent="WIyWlLk6GJQsqaUBKTNV-1" vertex="1">
          <mxGeometry x="710" y="320" width="80" height="26" as="geometry" />
        </mxCell>
        <mxCell id="kKHbiNKIMSAw3umt-t6Z-51" value="0...*" style="text;align=center;fontStyle=1;verticalAlign=middle;spacingLeft=3;spacingRight=3;strokeColor=none;rotatable=0;points=[[0,0.5],[1,0.5]];portConstraint=eastwest;" parent="WIyWlLk6GJQsqaUBKTNV-1" vertex="1">
          <mxGeometry x="700" y="101" width="80" height="26" as="geometry" />
        </mxCell>
        <mxCell id="kKHbiNKIMSAw3umt-t6Z-54" value="0...*" style="text;align=center;fontStyle=1;verticalAlign=middle;spacingLeft=3;spacingRight=3;strokeColor=none;rotatable=0;points=[[0,0.5],[1,0.5]];portConstraint=eastwest;" parent="WIyWlLk6GJQsqaUBKTNV-1" vertex="1">
          <mxGeometry x="790" y="200" width="80" height="26" as="geometry" />
        </mxCell>
        <mxCell id="2NQEuSehczfn9XwpuDgt-11" style="edgeStyle=orthogonalEdgeStyle;rounded=0;orthogonalLoop=1;jettySize=auto;html=1;entryX=0;entryY=0.5;entryDx=0;entryDy=0;endArrow=none;endFill=0;startArrow=diamond;startFill=0;exitX=1;exitY=0.5;exitDx=0;exitDy=0;" edge="1" parent="WIyWlLk6GJQsqaUBKTNV-1" source="kKHbiNKIMSAw3umt-t6Z-17" target="kKHbiNKIMSAw3umt-t6Z-9">
          <mxGeometry relative="1" as="geometry">
            <mxPoint x="710.96" y="338.004" as="sourcePoint" />
            <mxPoint x="800" y="550" as="targetPoint" />
            <Array as="points">
              <mxPoint x="470" y="542" />
              <mxPoint x="560" y="542" />
              <mxPoint x="560" y="598" />
            </Array>
          </mxGeometry>
        </mxCell>
        <mxCell id="2NQEuSehczfn9XwpuDgt-12" style="edgeStyle=orthogonalEdgeStyle;rounded=0;orthogonalLoop=1;jettySize=auto;html=1;entryX=-0.011;entryY=0.916;entryDx=0;entryDy=0;exitX=0.894;exitY=-0.006;exitDx=0;exitDy=0;endArrow=none;endFill=0;exitPerimeter=0;startArrow=diamond;startFill=0;entryPerimeter=0;" edge="1" parent="WIyWlLk6GJQsqaUBKTNV-1" source="kKHbiNKIMSAw3umt-t6Z-16" target="kKHbiNKIMSAw3umt-t6Z-5">
          <mxGeometry relative="1" as="geometry">
            <mxPoint x="710.96" y="338.004" as="sourcePoint" />
            <mxPoint x="800" y="550" as="targetPoint" />
            <Array as="points">
              <mxPoint x="448" y="280" />
              <mxPoint x="557" y="280" />
            </Array>
          </mxGeometry>
        </mxCell>
        <mxCell id="2NQEuSehczfn9XwpuDgt-13" value="1" style="text;align=center;fontStyle=1;verticalAlign=middle;spacingLeft=3;spacingRight=3;strokeColor=none;rotatable=0;points=[[0,0.5],[1,0.5]];portConstraint=eastwest;" vertex="1" parent="WIyWlLk6GJQsqaUBKTNV-1">
          <mxGeometry x="200" y="514" width="80" height="26" as="geometry" />
        </mxCell>
        <mxCell id="2NQEuSehczfn9XwpuDgt-14" style="edgeStyle=orthogonalEdgeStyle;rounded=0;orthogonalLoop=1;jettySize=auto;html=1;entryX=0.436;entryY=1.015;entryDx=0;entryDy=0;exitX=-0.005;exitY=0.605;exitDx=0;exitDy=0;endArrow=none;endFill=0;exitPerimeter=0;startArrow=diamond;startFill=0;entryPerimeter=0;" edge="1" parent="WIyWlLk6GJQsqaUBKTNV-1" source="kKHbiNKIMSAw3umt-t6Z-17" target="kKHbiNKIMSAw3umt-t6Z-15">
          <mxGeometry relative="1" as="geometry">
            <mxPoint x="457.74" y="479.13599999999997" as="sourcePoint" />
            <mxPoint x="568.24" y="289.58400000000006" as="targetPoint" />
            <Array as="points">
              <mxPoint x="140" y="547" />
            </Array>
          </mxGeometry>
        </mxCell>
        <mxCell id="2NQEuSehczfn9XwpuDgt-15" value="0...*" style="text;align=center;fontStyle=1;verticalAlign=middle;spacingLeft=3;spacingRight=3;strokeColor=none;rotatable=0;points=[[0,0.5],[1,0.5]];portConstraint=eastwest;" vertex="1" parent="WIyWlLk6GJQsqaUBKTNV-1">
          <mxGeometry x="490" y="284" width="80" height="26" as="geometry" />
        </mxCell>
        <mxCell id="2NQEuSehczfn9XwpuDgt-16" value="0...*" style="text;align=center;fontStyle=1;verticalAlign=middle;spacingLeft=3;spacingRight=3;strokeColor=none;rotatable=0;points=[[0,0.5],[1,0.5]];portConstraint=eastwest;" vertex="1" parent="WIyWlLk6GJQsqaUBKTNV-1">
          <mxGeometry x="600" y="570" width="80" height="26" as="geometry" />
        </mxCell>
      </root>
    </mxGraphModel>
  </diagram>
</mxfile>
